PathFileType	4	(X/Y/Z)	Patient5_TMGait_0pt45_1_left_14.trc.trc
DataRate	CameraRate	NumFrames	NumMarkers	Units	OrigDataRate	OrigDataStartFrame	OrigNumFrames
62.500000000000	62.500000000000	4	32	mm	62.500000000000	53	       141
Frame#	Time	R.ASIS			L.ASIS			Chest			R.Shoulder			Neck			L.Shoulder			L.Elbow			L.Wrist			R.Elbow			R.Wrist			L.Thigh.Superior			L.Thigh.Lateral			L.Thigh.Inferior			L.Patella			L.Shank.Superior			L.Shank.Lateral			L.Shank.Inferior			L.Heel			L.Midfoot.Lateral			L.Midfoot.Superior			L.Toe			R.Thigh.Superior			R.Thigh.Lateral			R.Thigh.Inferior			R.Patella			R.Shank.Superior			R.Shank.Lateral			R.Shank.Inferior			R.Heel			R.Midfoot.Lateral			R.Midfoot.Superior			R.Toe			
		X1	Y1	Z1	X2	Y2	Z2	X3	Y3	Z3	X4	Y4	Z4	X5	Y5	Z5	X6	Y6	Z6	X7	Y7	Z7	X8	Y8	Z8	X9	Y9	Z9	X10	Y10	Z10	X11	Y11	Z11	X12	Y12	Z12	X13	Y13	Z13	X14	Y14	Z14	X15	Y15	Z15	X16	Y16	Z16	X17	Y17	Z17	X18	Y18	Z18	X19	Y19	Z19	X20	Y20	Z20	X21	Y21	Z21	X22	Y22	Z22	X23	Y23	Z23	X24	Y24	Z24	X25	Y25	Z25	X26	Y26	Z26	X27	Y27	Z27	X28	Y28	Z28	X29	Y29	Z29	X30	Y30	Z30	X31	Y31	Z31	X32	Y32	Z32	

53	22.792000000000	1031.970438561270	1006.566741663315	533.751726093508	1069.300928747774	963.881695474124	297.738836098848	1156.503248837977	1437.350614408907	448.384402542696	1021.882433123275	1507.536815508899	584.142729754343	1051.881288923270	1570.820309436336	402.701906798944	1161.433706152860	1513.472613444281	247.985128121424	1130.522121094488	1200.534106526772	93.509161838608	1241.467577268648	937.836663773948	146.278931705828	889.355469000219	1193.575849465660	696.120179713583	1110.875664582477	1006.061909136342	679.932278462413	1085.539486534564	750.043895464457	302.973753964725	1018.728973705857	677.860896424356	257.807786475206	1084.991870928997	623.722733865836	332.013588257521	1087.097279521625	509.054762780364	345.026398980897	1039.883826274628	406.253888455695	364.962138047506	983.205650644041	333.735146544738	281.392114030083	1006.375130463128	283.222510962813	374.687412167216	873.430055244135	52.226046313646	373.632172823526	965.590807566371	27.192641411966	319.743111573353	1060.393211204145	88.703811707018	369.618037129067	1166.873789688515	43.921645394621	381.341977983076	1056.318846739473	787.881791914180	590.046711629885	971.618710796697	717.742659972128	650.291557225011	1062.082650273934	655.838897216904	598.403467270228	1056.578718595940	554.721132540943	645.066833565982	978.422508386426	457.756345358606	611.424682911852	875.291858311682	433.647193839510	685.521995290167	904.048568873781	337.855140195740	616.887023713630	707.104234816168	189.167194042314	581.307366210109	747.993954484376	126.578484965253	663.075140881088	873.631669348805	133.060209650396	664.554895926905	941.548926069489	45.990697206045	677.492096112292	
54	22.808000000000	1032.244908335761	1007.757060844292	532.065157642466	1067.943202994036	963.597129206664	296.437717707202	1155.689523027063	1437.685955424467	446.688208670359	1021.258634837054	1507.880507968091	582.535068238484	1051.097966853768	1571.161404823605	401.063442762982	1160.804057278343	1513.818923830648	246.544059410681	1132.044677466856	1200.579518748517	92.344373172530	1244.321168254497	938.594333816391	145.763468794849	887.748471260969	1194.361256308696	694.635944806813	1108.344610918559	1005.807364371064	677.742379141260	1083.119700186771	749.657333642357	301.867321900290	1014.976945872848	678.011416152832	257.272183724390	1081.573550314581	623.105662945210	330.625351953657	1082.661561737803	508.355476632330	343.522149025505	1034.853356791693	405.925992020816	363.951428224190	976.943065845268	333.832039612928	280.804692034074	1000.534280915168	283.113916088584	373.951388406169	866.213539146600	52.285084228525	373.538997045629	958.335845791341	27.168463941881	319.623653894292	1053.194851563449	88.657178244549	369.326146154168	1159.571465527259	43.951049942554	381.214986266858	1054.641747119300	788.372489386137	588.954333675267	970.183890559608	719.016412008158	649.561800759248	1060.031195392711	657.159579167936	597.343564455364	1056.179363174946	557.362661395326	645.189729274991	983.154799574929	458.349794467612	612.812661185122	880.657351105228	430.035633013904	685.934091966046	915.776667970405	334.751983271248	619.846483514439	728.407922273785	172.792412646445	584.186627205549	772.035521555429	115.440068237756	668.895860102810	896.992458482089	130.037693144344	672.356112632744	970.296078774535	47.748574771220	689.355813705783	
55	22.824000000000	1032.520911895351	1008.901101390285	530.835887153984	1066.629807550717	963.239327343920	295.587799872420	1154.660947613479	1437.865875395599	445.057488808802	1020.510927075181	1508.099027698490	581.042463372394	1050.051638137850	1571.338935038200	399.499499320295	1159.809088945703	1513.937074826936	245.118138276070	1133.277350521429	1200.364443199230	91.321026918507	1246.721841250943	939.058756806313	145.516294058979	886.362404719353	1194.965730473941	693.514333223700	1105.995724269861	1005.377510723608	675.518157446449	1080.730862598318	749.151735238938	301.165738055856	1011.400184743092	677.959647654036	257.037515514618	1078.152645775983	622.374538189352	329.665538070694	1078.233295571894	507.573150779335	342.480444023926	1029.814758108728	405.497700163481	363.281813425673	970.850903958289	333.821417459143	280.516521684704	994.687679275132	282.930001183758	373.502693685585	858.996789719538	52.279940079020	373.539714136011	951.085278380637	27.159326330532	319.561043787172	1045.970113347857	88.592347766513	369.144925197882	1152.292985109092	43.968807315216	381.100485938787	1052.692812356095	788.736365371463	588.190540040095	968.721699371338	720.017756016618	649.154904438322	1058.234880005582	658.446621872401	596.692707443017	1056.288267901974	559.940525249322	645.643697250487	988.696117646836	459.100590004406	614.189173154941	887.102784581628	426.309788809344	686.376876250558	928.613101891895	332.124776748554	622.569272053695	751.577053820586	157.853348884965	586.795483300967	797.654158692706	105.162431299748	673.731849372503	921.436044265515	127.631638014099	678.863114127035	999.659597343835	50.301705356397	698.939022598720	
56	22.840000000000	1032.799865848283	1010.006860317660	530.091710870270	1065.352182853558	962.834849959627	295.208150683931	1153.404829570419	1437.915853613418	443.537424274837	1019.586055454657	1508.226056372724	579.670542852790	1048.748130057239	1571.373582759849	398.029507507974	1158.460866179990	1513.833245334036	243.723315784695	1134.151177063922	1199.895556943981	90.454558259443	1248.683310266869	939.259420488690	145.499948666729	885.178169524403	1195.387487599219	692.715452841365	1103.859177439866	1004.824272470998	673.303968099550	1078.323761976025	748.535613388217	300.891559613007	1008.000650252513	677.738341437326	257.095306593714	1074.671156988615	621.543614431187	329.134328397515	1073.765317418541	506.721598512660	341.870752816347	1024.724634319800	404.991980575843	362.915156501784	964.884521052281	333.720354806057	280.475735225622	988.818626157256	282.687356026283	373.316160970913	851.777687737222	52.221401263083	373.622118069027	943.836769779421	27.166527342332	319.547318742522	1038.723207924029	88.514703300222	369.059061371712	1145.035114919240	43.974539299510	381.001305417597	1050.772374656762	789.149795674354	587.830526593812	967.546877609325	720.785317469343	649.084925376825	1057.079842492370	659.799695181484	596.481155685904	1057.229569230712	562.493137718486	646.413699701270	995.148264232747	460.108053590936	615.508180355105	894.710315582656	422.749262760534	686.833806318384	942.356658949995	330.199629219773	624.939218355698	775.914850705450	144.954474594102	589.056012405715	824.258576943378	96.185905356411	677.415441945937	946.432334917176	126.089409917938	683.823599044549	1029.054801098699	53.749678238660	705.868311015841	
